<svg width="16" height="16" viewBox="0 0 16 16" fill="none" xmlns="http://www.w3.org/2000/svg">
<path d="M4.923 15.4024C4.01477 14.5659 4.51754 13.2372 6.00963 12.4498C6.5124 12.2037 6.88542 12.0889 7.53415 12.1053C7.93961 12.1217 8.39373 12.3514 8.39373 12.3514C8.39373 9.38229 8.37751 3.77222 8.37751 1.0164C8.53969 1.0164 8.65322 1 8.88028 1C8.88028 1.16404 8.88028 1.29527 8.88028 1.4265C8.88028 1.57413 8.88028 1.65615 8.8965 1.75457C9.05868 2.788 9.28574 3.1981 10.421 4.46118C11.8645 6.08515 12.2861 7.05296 12.2861 8.34886C12.2699 9.56273 11.2157 12.1545 10.9887 12.0561C11.313 11.1375 11.7671 10.1533 11.8807 9.33308C12.0266 8.33245 11.6212 6.92173 10.9724 6.18357C10.4535 5.56023 9.22087 5.01891 8.88028 5.01891C8.88028 5.01891 8.86406 10.9899 8.86406 13.2536C8.86406 13.6308 8.52348 14.3034 8.32885 14.533C7.43684 15.6157 5.70148 16.1078 4.923 15.4024Z" fill="#BD3538"/>
</svg>
