<svg width="35" height="63" viewBox="0 0 35 63" fill="none" xmlns="http://www.w3.org/2000/svg">
<path d="M2.54252 61.5923C-1.34153 58.0146 0.808569 52.3324 7.18952 48.9652C9.33962 47.9129 10.9349 47.4219 13.7092 47.492C15.4431 47.5622 17.3852 48.5443 17.3852 48.5443C17.3852 35.847 17.3158 11.8555 17.3158 0.0701507C18.0094 0.0701507 18.4949 0 19.4659 0C19.4659 0.701507 19.4659 1.26271 19.4659 1.82392C19.4659 2.45527 19.4659 2.80603 19.5353 3.22693C20.2288 7.64642 21.1999 9.40019 26.0549 14.8018C32.2278 21.7467 34.0311 25.8856 34.0311 31.4275C33.9617 36.6187 29.4535 47.7025 28.4825 47.2816C29.8696 43.3531 31.8116 39.1441 32.2972 35.6365C32.9214 31.3574 31.1874 25.3244 28.4131 22.1676C26.1936 19.5019 20.9224 17.1869 19.4659 17.1869C19.4659 17.1869 19.3965 42.7218 19.3965 52.4026C19.3965 54.016 17.94 56.8922 17.1077 57.8743C13.293 62.5043 5.87171 64.6088 2.54252 61.5923Z" fill="#BD3538"/>
</svg>
