<svg width="266" height="64" viewBox="0 0 266 64" fill="none" xmlns="http://www.w3.org/2000/svg">
<path d="M61.1187 47V13.4H75.6627C78.6707 13.4 81.2627 13.896 83.4387 14.888C85.6147 15.848 87.2947 17.24 88.4787 19.064C89.6627 20.888 90.2547 23.064 90.2547 25.592C90.2547 28.088 89.6627 30.248 88.4787 32.072C87.2947 33.864 85.6147 35.24 83.4387 36.2C81.2627 37.16 78.6707 37.64 75.6627 37.64H65.4387L68.8947 34.232V47H61.1187ZM82.4787 47L74.0787 34.808H82.3827L90.8787 47H82.4787ZM68.8947 35.096L65.4387 31.448H75.2307C77.6307 31.448 79.4227 30.936 80.6067 29.912C81.7907 28.856 82.3827 27.416 82.3827 25.592C82.3827 23.736 81.7907 22.296 80.6067 21.272C79.4227 20.248 77.6307 19.736 75.2307 19.736H65.4387L68.8947 16.04V35.096ZM111.259 47V33.272L113.035 37.976L98.2508 13.4H106.507L117.835 32.264H113.083L124.459 13.4H132.091L117.307 37.976L119.035 33.272V47H111.259ZM148.608 47V19.736H137.856V13.4H167.136V19.736H156.384V47H148.608ZM201.32 13.4H209.096V47H201.32V13.4ZM186.056 47H178.28V13.4H186.056V47ZM201.896 33.224H185.48V26.648H201.896V33.224ZM224.006 47V13.4H230.438L244.742 37.112H241.334L255.398 13.4H261.782L261.878 47H254.582L254.534 24.584H255.878L244.646 43.448H241.142L229.67 24.584H231.302V47H224.006Z" fill="#BD3538"/>
<path d="M1.97315 62.57C-1.9773 58.9355 0.209553 53.1631 6.69958 49.7424C8.88643 48.6734 10.5089 48.1746 13.3307 48.2459C15.0943 48.3171 17.0695 49.3148 17.0695 49.3148C17.0695 36.416 16.999 12.0436 16.999 0.0712642C17.7044 0.0712642 18.1982 0 19.1858 0C19.1858 0.712642 19.1858 1.28276 19.1858 1.85287C19.1858 2.49425 19.1858 2.85057 19.2564 3.27815C19.9618 7.7678 20.9494 9.5494 25.8875 15.0367C32.1659 22.0919 34 26.2965 34 31.9264C33.9295 37.1999 29.3441 48.4596 28.3565 48.0321C29.7674 44.0413 31.7426 39.7654 32.2364 36.2022C32.8713 31.8551 31.1077 25.7264 28.286 22.5195C26.0286 19.8114 20.6672 17.4597 19.1858 17.4597C19.1858 17.4597 19.1153 43.3999 19.1153 53.2343C19.1153 54.8734 17.6339 57.7953 16.7873 58.793C12.9074 63.4964 5.35924 65.6343 1.97315 62.57Z" fill="#BD3538"/>
</svg>
