<svg width="247" height="63" viewBox="0 0 247 63" fill="none" xmlns="http://www.w3.org/2000/svg">
<path d="M52.9893 48.857V16.457H67.0138C69.9144 16.457 72.4138 16.9353 74.5121 17.8919C76.6104 18.8176 78.2304 20.1599 79.3721 21.9187C80.5138 23.6776 81.0847 25.7759 81.0847 28.2136C81.0847 30.6205 80.5138 32.7033 79.3721 34.4622C78.2304 36.1902 76.6104 37.517 74.5121 38.4427C72.4138 39.3685 69.9144 39.8313 67.0138 39.8313H57.155L60.4875 36.545V48.857H52.9893ZM73.5864 48.857L65.4864 37.1005H73.4938L81.6864 48.857H73.5864ZM60.4875 37.3782L57.155 33.8605H66.5973C68.9115 33.8605 70.6395 33.3667 71.7813 32.3793C72.923 31.361 73.4938 29.9725 73.4938 28.2136C73.4938 26.4239 72.923 25.0353 71.7813 24.0479C70.6395 23.0605 68.9115 22.5667 66.5973 22.5667H57.155L60.4875 19.0027V37.3782Z" fill="#BD3538"/>
<path d="M101.339 48.857V35.6193L103.051 40.1553L88.7952 16.457H96.7564L107.68 34.6473H103.098L114.067 16.457H121.427L107.171 40.1553L108.837 35.6193V48.857H101.339Z" fill="#BD3538"/>
<path d="M137.354 48.857V22.5667H126.986V16.457H155.22V22.5667H144.852V48.857H137.354Z" fill="#BD3538"/>
<path d="M188.183 16.457H195.682V48.857H188.183V16.457ZM173.464 48.857H165.966V16.457H173.464V48.857ZM188.739 35.573H172.909V29.2319H188.739V35.573Z" fill="#BD3538"/>
<path d="M210.059 48.857V16.457H216.261L230.054 39.3222H226.768L240.33 16.457H246.486L246.578 48.857H239.543L239.496 27.2416H240.792L229.962 45.4319H226.583L215.52 27.2416H217.094V48.857H210.059Z" fill="#BD3538"/>
<path d="M1.93998 61.5923C-1.94407 58.0146 0.206031 52.3324 6.58698 48.9652C8.73708 47.9129 10.3323 47.4219 13.1066 47.492C14.8406 47.5622 16.7826 48.5443 16.7826 48.5443C16.7826 35.847 16.7133 11.8555 16.7133 0.0701507C17.4068 0.0701507 17.8924 0 18.8634 0C18.8634 0.701507 18.8634 1.26271 18.8634 1.82392C18.8634 2.45527 18.8634 2.80603 18.9327 3.22693C19.6263 7.64642 20.5973 9.40019 25.4524 14.8018C31.6253 21.7467 33.4286 25.8856 33.4286 31.4275C33.3592 36.6187 28.8509 47.7025 27.8799 47.2816C29.2671 43.3531 31.2091 39.1441 31.6946 35.6365C32.3188 31.3574 30.5849 25.3244 27.8106 22.1676C25.5911 19.5019 20.3199 17.1869 18.8634 17.1869C18.8634 17.1869 18.794 42.7218 18.794 52.4026C18.794 54.016 17.3375 56.8922 16.5052 57.8743C12.6905 62.5043 5.26917 64.6088 1.93998 61.5923Z" fill="#BD3538"/>
</svg>
